<?xml version="1.0" standalone="no"?>
<!DOCTYPE svg PUBLIC "-//W3C//DTD SVG 20010904//EN"
 "http://www.w3.org/TR/2001/REC-SVG-20010904/DTD/svg10.dtd">
<svg version="1.0" xmlns="http://www.w3.org/2000/svg"
 width="685.000000pt" height="741.000000pt" viewBox="0 0 685.000000 741.000000"
 preserveAspectRatio="xMidYMid meet">
<metadata>
Created by potrace 1.16, written by Peter Selinger 2001-2019
</metadata>
<g transform="translate(0.000000,741.000000) scale(0.100000,-0.100000)"
fill="#000000" stroke="none">
<path d="M159 7308 c-39 -57 -84 -119 -99 -138 -45 -59 -61 -98 -58 -143 l3
-42 33 47 c17 26 32 53 32 61 0 8 9 22 20 32 11 10 31 38 45 61 14 24 29 44
33 44 4 0 22 25 40 55 18 31 38 52 44 49 6 -4 9 -58 8 -143 -1 -75 1 -190 5
-256 7 -131 16 -152 65 -140 14 3 55 8 91 12 63 5 66 4 73 -18 l6 -24 25 28
c14 15 25 32 25 37 0 13 -58 24 -135 24 l-70 1 -8 100 c-5 55 -9 165 -10 245
l-2 145 -27 3 c-32 4 -34 9 -12 40 15 21 14 22 -20 22 -33 0 -39 -6 -107 -102z"/>
<path d="M6550 7406 c0 -2 16 -27 35 -56 38 -56 44 -75 20 -66 -20 7 -45 -3
-45 -19 0 -7 10 -15 22 -18 20 -6 21 -9 14 -114 -3 -59 -9 -125 -12 -145 l-7
-38 -81 0 c-101 0 -156 -14 -156 -39 0 -10 7 -24 16 -31 8 -8 14 -25 12 -39
-3 -23 1 -26 30 -29 33 -3 34 -3 30 35 l-3 38 95 1 c53 0 100 3 106 7 6 3 14
50 18 104 9 143 17 203 26 203 5 0 19 -19 33 -42 14 -24 42 -59 63 -79 45 -42
69 -71 77 -90 3 -8 6 9 6 36 1 48 -2 54 -45 95 -25 25 -59 72 -76 105 -17 33
-51 88 -75 123 -37 52 -50 62 -74 62 -16 0 -29 -2 -29 -4z"/>
<path d="M4601 7264 c-25 -9 -67 -33 -95 -53 -53 -39 -81 -54 -256 -140 -58
-29 -113 -58 -123 -66 -27 -19 -90 -209 -82 -245 3 -15 22 -46 41 -68 18 -22
34 -44 34 -49 0 -10 77 -43 84 -35 16 15 1 46 -49 97 -30 31 -55 65 -55 76 0
11 10 49 22 84 20 57 28 67 83 104 33 22 87 52 120 65 99 39 148 64 185 91 19
14 60 38 90 53 47 23 66 26 130 25 92 -3 219 -20 282 -39 26 -8 56 -14 66 -14
24 0 102 -51 178 -116 90 -77 73 -125 -91 -250 -29 -23 -45 -43 -45 -57 0 -13
-9 -26 -22 -32 -30 -13 -37 -55 -10 -55 25 0 28 -10 43 -113 11 -80 11 -85 -9
-105 l-20 -20 -4 61 c-3 45 -9 63 -23 71 -51 30 -58 45 -53 118 4 47 2 68 -6
65 -15 -5 -24 -43 -25 -112 0 -63 14 -95 42 -95 15 0 19 -9 32 -72 1 -10 -5
-27 -16 -39 -33 -38 -33 -59 -3 -115 l28 -52 -17 -89 c-21 -111 -22 -170 -2
-217 19 -45 11 -161 -13 -189 -9 -10 -34 -27 -56 -37 -23 -11 -55 -29 -71 -40
-17 -10 -63 -24 -103 -30 -72 -12 -74 -11 -135 19 -86 44 -93 51 -108 101 -14
52 -27 72 -40 64 -5 -3 -9 2 -9 11 0 9 -8 28 -17 42 -15 22 -18 53 -20 173 -3
210 -4 216 -41 261 -21 25 -36 56 -42 87 -4 26 -17 83 -29 126 -12 44 -21 87
-21 97 0 22 -18 35 -32 21 -7 -7 -5 -30 5 -74 21 -85 41 -238 33 -246 -13 -12
-24 22 -31 92 -11 124 -16 145 -45 176 -27 29 -60 40 -60 20 0 -5 11 -25 24
-45 26 -38 39 -105 40 -205 1 -36 5 -71 9 -77 5 -8 31 -13 68 -13 68 0 85 -17
52 -53 -12 -12 -23 -38 -27 -58 -10 -58 -64 -156 -104 -189 -20 -16 -51 -33
-69 -36 -42 -8 -59 -27 -38 -44 20 -16 78 -5 130 25 45 26 110 106 121 148 12
50 21 10 16 -69 -4 -63 -1 -82 15 -112 11 -21 28 -73 38 -117 11 -44 25 -87
32 -95 7 -9 19 -47 27 -85 9 -39 29 -112 45 -163 34 -107 38 -124 87 -400 19
-111 40 -217 45 -234 14 -51 2 -45 -25 13 -37 79 -121 224 -144 249 -11 12
-26 36 -33 54 -22 52 -158 261 -226 346 l-23 28 26 38 c14 22 34 48 44 59 10
11 31 53 45 94 l27 74 -23 18 c-23 17 -25 17 -44 0 -22 -21 -79 -51 -94 -51
-5 0 -14 24 -21 53 -13 64 -49 113 -75 104 -13 -5 -15 -13 -10 -30 19 -60 16
-71 -29 -119 -26 -28 -42 -40 -39 -29 3 10 0 28 -6 40 -8 14 -8 34 -1 66 10
45 7 70 -21 161 -12 40 -17 90 -24 249 -3 72 -10 150 -15 175 -5 25 -12 110
-15 190 -7 154 -11 185 -43 294 -20 70 -48 105 -84 106 -24 0 -31 -48 -19
-132 6 -40 13 -143 16 -228 3 -85 9 -175 14 -200 24 -119 32 -179 35 -277 4
-100 13 -132 34 -119 27 17 17 236 -17 381 -27 111 -31 151 -29 275 1 74 -1
155 -6 180 -6 31 -5 42 2 35 19 -19 40 -150 47 -290 3 -77 13 -189 20 -250 12
-94 19 -244 16 -323 -1 -13 -5 -21 -10 -18 -5 3 -12 -20 -15 -52 -13 -105 -17
-109 -75 -63 -27 22 -40 42 -49 78 -19 74 -31 189 -32 290 0 51 -4 114 -9 140
-19 104 -41 242 -50 318 -15 123 -33 219 -44 233 -15 19 -45 14 -52 -9 -5 -15
-10 -18 -18 -10 -6 6 -20 11 -30 11 -21 0 -20 -18 4 -150 6 -30 14 -77 19
-105 5 -27 16 -138 25 -245 9 -107 23 -231 30 -275 8 -44 17 -126 21 -182 6
-86 5 -103 -8 -103 -17 0 -44 73 -54 145 -4 28 -11 61 -17 75 -6 14 -16 59
-23 100 -7 41 -21 120 -32 175 -10 55 -24 136 -31 180 -7 44 -20 105 -28 135
-8 30 -17 65 -20 78 -3 12 -9 22 -13 22 -12 0 -19 54 -8 67 5 7 7 17 3 23 -12
20 -42 10 -83 -28 l-42 -39 15 -79 c8 -43 21 -117 30 -164 9 -47 25 -134 35
-195 11 -60 29 -148 40 -195 11 -47 20 -98 20 -112 0 -14 7 -61 15 -104 36
-185 47 -224 77 -262 39 -49 40 -49 120 -57 57 -6 72 -11 84 -31 9 -13 13 -28
9 -34 -4 -6 0 -19 8 -28 16 -19 34 -86 47 -177 29 -201 40 -268 54 -333 20
-90 20 -151 2 -166 -7 -6 -21 -40 -30 -76 -9 -36 -26 -99 -36 -140 -24 -91
-25 -114 -5 -130 18 -15 45 2 45 27 0 35 44 243 51 243 12 0 29 -69 29 -116 0
-22 7 -63 15 -90 8 -27 15 -68 15 -91 0 -24 7 -79 16 -124 11 -55 13 -83 6
-88 -5 -3 -51 -37 -101 -76 l-91 -70 6 -45 c3 -25 10 -53 16 -63 12 -23 3 -34
-16 -18 -18 15 -56 156 -53 201 1 24 -3 35 -13 37 -30 6 -44 -15 -43 -59 2
-40 -2 -45 -40 -74 -50 -37 -92 -59 -130 -68 l-29 -7 7 43 c16 108 16 108 39
108 29 0 43 12 102 85 l48 60 -30 3 c-24 3 -36 -4 -70 -42 -22 -25 -44 -46
-48 -46 -11 0 4 63 20 81 20 22 18 33 -15 103 -32 67 -55 126 -76 196 -27 95
-33 103 -63 95 -15 -4 -28 -8 -30 -10 -4 -4 66 -210 93 -270 20 -45 21 -58 13
-125 -5 -41 -12 -78 -16 -82 -11 -11 -130 -46 -137 -40 -3 3 -5 52 -5 110 0
95 -2 104 -20 109 -12 3 -20 14 -20 27 0 30 -10 41 -58 65 -24 12 -45 28 -48
35 -8 21 34 95 80 141 56 56 153 116 196 122 34 5 37 3 47 -28 29 -87 47 -129
80 -194 20 -38 58 -112 84 -164 32 -62 47 -101 43 -116 -3 -13 1 -27 10 -34
16 -14 31 -5 130 83 16 14 41 26 55 26 15 0 31 8 38 20 13 20 8 50 -8 50 -5 0
-9 11 -9 24 0 21 -5 24 -42 28 -24 2 -62 0 -86 -5 -35 -7 -45 -15 -55 -40
l-13 -31 -53 108 c-84 174 -105 234 -91 251 7 8 19 15 26 15 27 0 14 51 -31
116 -57 82 -69 105 -96 185 -12 35 -38 86 -58 114 -115 162 -128 172 -223 182
-32 3 -58 10 -58 14 0 5 6 9 14 9 19 0 31 92 19 139 -8 29 -4 44 25 97 29 56
33 70 30 130 -2 43 -8 69 -15 72 -9 3 -13 -12 -13 -52 0 -62 -31 -157 -61
-185 -18 -17 -18 -20 -4 -60 9 -28 11 -48 5 -59 -5 -9 -12 -30 -16 -47 l-7
-30 -9 35 c-18 66 -28 81 -73 108 -51 31 -65 61 -65 141 0 43 -7 68 -30 110
-21 38 -27 58 -20 70 7 14 9 14 14 1 3 -8 6 -26 8 -39 2 -14 9 -27 17 -29 11
-4 13 3 8 32 -6 39 11 66 43 66 22 0 30 -18 23 -53 -7 -37 21 -46 52 -17 l24
23 -6 -38 -6 -38 59 48 c32 26 63 51 67 55 4 4 1 27 -7 51 -15 42 -15 45 4 61
11 9 20 20 18 25 -1 4 2 46 6 93 6 68 3 106 -13 188 -12 57 -21 121 -21 142 0
44 -8 52 -57 55 -18 1 -43 11 -56 23 -37 34 -200 30 -342 -10 -38 -10 -106
-23 -150 -28 -105 -11 -196 -56 -326 -163 -104 -85 -119 -108 -119 -181 0 -23
-7 -68 -15 -99 -8 -32 -15 -67 -15 -78 0 -25 -59 -179 -68 -178 -20 3 -18 -4
9 -30 16 -17 29 -40 29 -54 0 -19 11 -31 45 -51 24 -15 50 -36 56 -48 10 -19
9 -24 -10 -36 -11 -8 -21 -18 -21 -23 0 -5 -19 -27 -43 -49 -32 -31 -55 -43
-99 -52 -35 -7 -58 -17 -58 -25 0 -7 6 -13 14 -13 19 0 56 -47 56 -71 0 -13
-7 -19 -22 -19 -21 0 -69 -49 -118 -121 -63 -94 -253 -322 -328 -395 l-83 -81
-5 -84 c-2 -46 -8 -122 -14 -169 -5 -47 -12 -121 -15 -165 -12 -167 -36 -402
-44 -440 -5 -22 -16 -78 -25 -125 -10 -47 -21 -93 -27 -103 -10 -18 -2 -95 12
-112 12 -16 13 -175 2 -186 -8 -8 -7 -19 3 -37 18 -35 17 -140 -1 -217 -21
-87 -20 -146 3 -152 50 -13 67 -271 42 -657 -6 -92 -12 -212 -14 -265 -2 -53
-9 -132 -14 -176 -6 -44 -16 -125 -22 -180 -6 -55 -16 -126 -21 -158 -12 -72
-39 -366 -39 -431 0 -43 5 -53 37 -87 29 -29 50 -41 91 -50 29 -6 86 -26 127
-45 53 -25 88 -34 125 -34 28 0 63 -6 78 -14 15 -8 53 -17 85 -21 63 -8 77
-23 90 -92 8 -39 4 -40 -31 -13 -22 18 -27 19 -34 6 -16 -28 24 -76 96 -115
51 -29 204 -65 219 -52 7 5 35 12 62 17 28 4 60 14 72 22 26 16 24 18 43 -57
13 -49 7 -62 -16 -39 -13 13 -23 14 -45 6 -31 -11 -37 -26 -18 -45 9 -9 9 -26
0 -69 -6 -32 -11 -83 -11 -114 0 -47 -4 -62 -25 -85 l-26 -27 -247 7 c-207 6
-254 10 -289 25 -46 20 -54 35 -25 42 14 4 18 17 20 77 2 80 18 119 59 147 23
15 52 19 158 22 l130 4 35 -36 c37 -38 77 -47 87 -19 4 11 -6 27 -33 50 -70
61 -85 65 -210 61 -111 -3 -129 2 -105 28 5 5 19 44 30 88 23 85 19 106 -24
106 -29 0 -43 -36 -52 -132 -4 -46 -2 -72 6 -82 7 -8 8 -16 4 -19 -18 -10 -70
-21 -102 -22 -34 0 -35 -1 -52 -70 -10 -38 -18 -96 -18 -127 -1 -32 -5 -58
-11 -58 -5 0 -15 -10 -21 -22 -11 -20 -8 -26 26 -55 55 -48 141 -72 246 -68
47 1 130 -1 185 -5 55 -4 141 -2 193 4 89 9 95 11 112 40 14 24 19 51 19 112
0 44 7 104 15 132 14 47 18 52 45 52 27 0 30 3 30 33 0 17 -5 48 -10 67 -6 19
-11 60 -11 90 0 43 -6 62 -25 88 -38 49 -68 66 -93 52 -30 -16 -28 -56 4 -64
14 -4 25 -13 25 -21 0 -22 -71 -65 -108 -65 -18 0 -52 -5 -75 -11 -35 -8 -51
-7 -92 8 l-50 19 -7 59 c-4 33 -9 69 -10 80 -3 18 5 21 97 27 55 4 106 6 113
3 7 -2 13 -23 13 -47 2 -67 12 -102 31 -106 15 -3 18 8 20 75 l3 78 40 2 c22
0 93 6 158 12 121 11 140 18 337 116 14 7 40 16 58 20 39 8 39 5 12 -84 -11
-36 -22 -79 -26 -96 l-6 -30 -24 28 c-29 34 -54 32 -72 -6 -7 -15 -17 -27 -22
-27 -25 0 -56 -112 -66 -242 -4 -46 -11 -91 -16 -100 -7 -14 0 -23 32 -43 22
-14 42 -25 45 -25 7 0 93 -37 117 -50 11 -6 36 -3 76 10 86 28 125 19 158 -37
25 -42 28 -45 58 -37 45 11 90 10 181 -6 44 -7 124 -13 177 -14 l97 -1 41 40
c44 43 85 118 95 175 10 61 -75 174 -107 142 -7 -7 -25 -5 -57 5 -76 25 -94
36 -121 76 -28 42 -148 110 -184 105 -35 -5 -30 -34 11 -58 l38 -23 -35 -9
c-69 -18 -75 -18 -88 -10 -9 6 -8 17 8 50 11 22 20 46 20 52 0 26 45 151 77
212 37 70 46 77 116 83 23 2 76 9 117 15 41 6 95 13 120 16 113 14 220 72 220
119 0 12 -9 55 -19 96 -11 41 -31 155 -46 254 -14 99 -30 198 -36 220 -14 58
-26 132 -49 300 -12 83 -26 167 -31 189 -6 21 -15 88 -20 150 -5 61 -16 165
-24 231 -17 136 -35 328 -30 333 1 2 12 -9 24 -24 26 -33 88 -67 96 -54 3 6 3
15 0 20 -4 6 13 34 37 63 24 28 68 101 98 160 48 94 55 116 55 167 0 32 3 56
7 54 14 -9 20 46 8 81 -6 20 -12 85 -11 144 0 84 -5 131 -24 207 -14 53 -24
98 -23 100 2 1 12 4 22 6 24 4 34 -24 35 -104 2 -95 34 -106 194 -63 40 11 71
14 77 9 4 -5 15 -74 24 -154 9 -80 20 -190 26 -245 20 -183 28 -240 38 -280 6
-22 16 -89 22 -150 16 -171 31 -275 47 -335 25 -97 43 -280 43 -440 0 -191 23
-406 51 -478 9 -24 40 -234 59 -402 6 -58 15 -125 20 -150 10 -52 18 -109 25
-195 11 -117 50 -308 64 -313 11 -4 13 9 9 62 -5 77 5 83 48 30 34 -43 39 -52
49 -82 6 -20 0 -25 -46 -46 -28 -14 -56 -31 -60 -38 -6 -10 -13 -10 -26 -2
-10 6 -34 9 -55 6 -49 -6 -55 8 -67 159 -6 68 -18 185 -26 259 -9 74 -20 176
-25 225 -6 50 -15 113 -20 140 -6 28 -19 111 -30 185 -11 74 -26 173 -35 220
-8 47 -20 153 -25 235 -6 83 -15 194 -20 249 -6 54 -10 130 -10 170 -1 65 -19
180 -33 202 -7 12 -46 276 -52 360 -3 37 -9 95 -14 129 -5 33 -7 73 -4 87 3
15 -2 84 -10 155 -9 70 -19 155 -22 188 -6 57 -36 149 -61 188 -9 14 -13 15
-21 5 -11 -16 -52 -259 -58 -344 l-4 -62 44 -17 c24 -9 58 -32 75 -51 27 -31
30 -41 30 -101 0 -37 5 -93 12 -125 10 -47 10 -63 0 -79 -17 -26 -19 -402 -3
-544 43 -401 57 -900 30 -1090 -6 -38 -14 -106 -19 -150 -5 -44 -13 -112 -18
-150 -12 -90 -6 -130 23 -149 12 -8 28 -28 35 -45 7 -17 18 -31 26 -31 20 0
26 -17 14 -40 -6 -11 -21 -20 -33 -20 -12 0 -29 -4 -37 -10 -9 -5 -19 -5 -27
2 -9 7 -17 7 -27 -1 -7 -6 -20 -9 -29 -5 -27 10 -31 -18 -6 -37 25 -19 22 -22
-22 -19 -19 1 -33 -7 -48 -28 -11 -17 -21 -34 -21 -39 0 -17 69 -99 95 -113
14 -7 25 -19 25 -27 0 -22 -14 -15 -55 27 -21 21 -42 37 -47 34 -18 -11 -6
-44 25 -68 137 -107 159 -120 211 -124 81 -6 230 39 265 81 20 24 -4 29 -41 9
-117 -65 -276 -70 -326 -9 -11 13 1 15 85 19 106 4 175 27 181 61 3 15 0 16
-23 7 -25 -9 -27 -8 -22 10 7 28 -7 25 -27 -5 -22 -34 -80 -44 -107 -19 -30
27 -61 92 -55 112 4 11 28 24 64 35 75 22 79 22 119 -9 24 -18 33 -33 33 -55
0 -16 5 -29 10 -29 6 0 10 20 10 44 0 38 -5 48 -34 74 -19 17 -44 33 -55 37
-20 6 -30 25 -13 25 21 0 102 -33 113 -46 7 -8 16 -36 21 -62 23 -124 24 -124
105 -120 57 3 58 4 61 34 3 28 10 33 88 67 46 20 91 34 100 30 8 -3 20 2 27
10 7 9 40 21 77 27 88 14 86 14 96 -22 13 -44 32 -46 40 -4 10 55 1 66 -52 66
-38 0 -45 3 -40 16 3 9 9 32 12 52 5 33 1 42 -35 82 l-41 45 25 9 c14 6 25 13
25 18 0 4 6 8 14 8 19 0 24 18 15 60 -9 42 -43 270 -59 390 -6 47 -15 162 -20
255 -6 94 -14 202 -19 240 -9 71 0 358 18 592 12 151 38 321 61 391 l17 53 23
-103 c26 -118 35 -174 50 -313 6 -55 17 -154 26 -220 33 -259 44 -408 44 -610
0 -221 -13 -459 -31 -560 -8 -42 -8 -60 0 -63 6 -2 11 -10 11 -17 0 -8 9 -17
21 -20 11 -4 45 -18 75 -32 l53 -24 -21 -33 c-18 -28 -25 -32 -40 -23 -25 16
-33 2 -20 -39 12 -40 2 -79 -25 -99 -21 -16 -14 -25 56 -79 77 -58 98 -68 122
-61 38 12 107 -5 136 -33 54 -53 113 -127 113 -143 0 -33 90 -38 203 -13 40 9
88 24 107 34 19 10 71 32 115 49 82 33 115 55 115 76 0 7 -6 15 -14 18 -10 4
-13 17 -9 45 5 36 2 41 -36 74 -23 19 -41 40 -41 46 0 6 -11 19 -25 30 -14 11
-25 30 -25 44 0 13 -9 31 -20 41 -11 9 -20 22 -20 29 -1 7 -10 24 -20 37 -17
19 -32 24 -88 28 -95 6 -96 7 -77 42 8 17 21 34 27 38 7 4 23 20 36 34 20 23
24 42 32 170 6 79 17 214 25 299 40 419 46 505 48 765 3 413 -12 687 -54 951
-10 67 -19 124 -19 128 0 10 92 -4 108 -17 19 -15 94 12 88 32 -8 29 -16 95
-26 219 -7 103 -13 131 -35 169 l-25 46 57 64 c31 36 62 67 69 70 41 16 95
162 75 201 -10 18 -31 145 -31 186 0 17 6 26 16 26 56 0 81 129 46 245 -14 46
-25 65 -49 80 -25 16 -44 47 -89 147 -31 69 -54 131 -50 136 7 11 -15 110 -51
227 -32 106 -89 203 -130 224 -18 9 -37 28 -42 44 -6 15 -20 41 -31 58 -16 22
-22 44 -21 87 0 54 -2 59 -32 78 -75 48 -93 60 -119 71 -24 10 -26 14 -18 50
7 27 6 41 -3 49 -11 10 -78 38 -184 78 -63 23 -149 82 -179 122 -16 21 -39 38
-57 41 -27 5 -29 8 -23 41 3 19 12 42 21 52 15 16 14 23 -10 83 -15 36 -33 71
-41 78 -8 6 -14 17 -14 25 0 22 21 27 34 8 12 -16 14 -16 30 8 9 14 26 28 36
31 24 6 25 21 4 127 -11 60 -12 85 -4 95 6 7 8 24 5 38 -7 28 0 38 80 102 62
50 80 70 106 119 28 52 19 117 -21 155 -43 40 -112 95 -135 107 -11 6 -36 20
-55 31 -19 11 -55 32 -80 47 -34 19 -59 26 -101 26 -31 0 -78 4 -105 9 -106
20 -207 22 -253 5z m-917 -406 c3 -13 8 -36 11 -53 3 -16 10 -59 15 -95 5 -36
11 -81 15 -100 7 -43 23 -229 35 -410 9 -129 18 -199 39 -284 9 -37 50 -81
105 -113 48 -28 96 -2 96 51 0 17 4 37 9 45 7 11 11 5 16 -22 9 -46 9 -69 -2
-137 -8 -57 -7 -56 -82 -77 -9 -2 -12 -13 -8 -37 6 -40 0 -51 -36 -60 -21 -5
-29 -2 -34 11 -3 10 -16 32 -28 48 -13 17 -25 39 -27 50 -2 14 -10 19 -23 16
-11 -2 -40 -4 -65 -4 -37 0 -51 6 -79 31 -36 35 -43 55 -72 207 -41 210 -73
362 -119 560 -5 22 -14 72 -20 110 -6 39 -16 86 -21 106 -14 56 -11 95 10 120
16 19 21 21 25 9 16 -46 67 -330 75 -421 6 -58 15 -119 22 -135 6 -16 17 -67
26 -114 41 -242 52 -287 75 -317 16 -21 88 -27 106 -9 14 14 14 31 4 148 -6
73 -16 158 -22 188 -5 30 -15 118 -20 195 -18 234 -27 316 -44 400 -9 44 -16
88 -16 98 0 25 29 21 34 -5z m-566 -390 c20 -12 39 -23 41 -24 4 -3 17 -66 30
-147 5 -26 5 -50 1 -52 -4 -3 -28 6 -53 19 -84 45 -158 60 -265 53 -139 -9
-244 -51 -328 -132 -45 -43 -47 -48 -87 -197 -34 -127 -41 -170 -41 -251 -1
-64 3 -102 11 -108 6 -6 17 -42 23 -82 7 -40 20 -81 30 -92 29 -33 40 -61 40
-102 l-1 -38 -13 36 c-27 78 -132 223 -235 327 -47 48 -86 91 -87 97 0 5 -4
24 -8 41 -5 21 -2 44 8 67 26 64 75 272 69 295 -4 17 4 31 40 65 144 134 271
203 364 198 18 -1 79 10 135 23 167 41 259 42 326 4z m-35 -243 l77 -36 0 -41
c0 -23 8 -65 17 -94 9 -30 15 -55 12 -57 -2 -1 -55 -1 -116 1 l-113 4 0 28 c0
21 9 35 31 50 35 26 32 35 -9 25 -44 -9 -70 -83 -40 -113 9 -9 8 -12 -5 -12
-9 0 -17 -5 -17 -10 0 -7 38 -9 115 -4 112 7 116 6 140 -16 30 -28 31 -38 8
-55 -15 -11 -27 -8 -75 16 -65 33 -103 37 -130 12 -18 -16 -18 -16 -12 0 8 22
-9 22 -28 0 -29 -33 -28 -56 2 -117 22 -43 29 -68 25 -90 -3 -17 -1 -55 3 -84
8 -46 7 -54 -9 -62 -38 -21 -108 -1 -132 37 -4 7 -15 13 -23 13 -11 0 -14 -9
-12 -32 3 -28 7 -33 27 -30 14 1 32 -6 43 -18 24 -26 53 -25 116 1 l51 21 30
-22 c22 -15 35 -37 47 -76 8 -30 20 -52 25 -49 17 11 9 -22 -14 -56 -12 -19
-38 -41 -57 -51 -23 -10 -43 -32 -59 -62 -22 -43 -25 -45 -78 -52 -71 -9 -118
0 -162 30 -20 13 -51 27 -68 31 -18 4 -35 11 -38 16 -4 5 -17 9 -30 9 -31 0
-34 7 -36 71 -2 53 -14 83 -51 125 -10 11 -23 47 -28 80 -6 32 -22 80 -35 105
-41 76 -35 142 26 317 11 29 19 64 19 78 0 34 72 110 129 136 74 33 122 50
191 63 96 20 155 12 243 -30z m2113 -292 c35 -24 169 -90 217 -108 26 -10 50
-21 52 -25 3 -4 -11 -39 -30 -76 -20 -38 -41 -86 -47 -106 l-11 -37 -62 34
c-67 38 -109 44 -119 19 -11 -29 -6 -46 22 -78 15 -17 47 -70 71 -116 24 -47
53 -95 64 -107 l20 -23 -20 -22 c-39 -42 -110 -218 -127 -313 -9 -49 -21 -113
-27 -141 -18 -94 -31 -247 -36 -434 -2 -102 -8 -189 -12 -193 -4 -4 -16 30
-26 75 -10 46 -22 90 -26 98 -11 22 -31 204 -32 288 -1 39 -5 72 -10 72 -5 0
-6 24 -2 56 4 36 3 54 -3 50 -6 -4 -12 29 -16 86 -3 51 -11 152 -17 223 -12
134 -17 374 -10 458 3 37 7 47 22 47 10 0 34 15 53 33 33 31 35 35 41 128 6
85 5 101 -14 142 -32 69 -25 77 23 27 24 -25 52 -51 62 -57z m-990 -265 c12
-41 31 -45 85 -19 24 12 44 21 47 21 10 0 -15 -51 -47 -95 -55 -73 -93 -143
-86 -155 3 -5 15 -10 25 -10 31 0 177 -198 247 -335 14 -27 36 -63 48 -80 13
-16 36 -54 51 -83 59 -110 73 -134 88 -157 9 -14 26 -50 37 -82 12 -32 34 -77
50 -101 22 -33 31 -61 38 -125 13 -117 13 -507 0 -602 -6 -44 -14 -146 -18
-227 -6 -138 -8 -149 -31 -174 -28 -30 -97 -75 -185 -121 -74 -39 -232 -74
-244 -55 -4 7 -8 63 -9 125 0 62 -5 132 -11 157 -6 25 -11 77 -11 117 l0 71
32 8 c33 7 77 31 89 47 4 5 2 25 -2 46 -5 20 -12 83 -15 141 -3 57 -7 106 -9
108 -2 3 2 20 10 39 24 58 19 78 -29 117 -23 20 -50 36 -60 36 -17 0 -22 -15
-8 -24 5 -3 8 -25 8 -48 l-1 -43 -125 -2 c-138 -1 -188 -10 -204 -35 -17 -27
0 -32 71 -20 71 13 260 9 274 -5 8 -9 12 -35 10 -75 -1 -32 -17 -36 -61 -13
-62 32 -242 27 -248 -8 -3 -15 7 -17 100 -17 87 0 108 -3 137 -21 23 -14 44
-19 63 -15 20 4 28 2 28 -9 0 -23 -12 -25 -140 -26 -132 -1 -150 -4 -150 -25
0 -17 59 -28 111 -21 48 6 168 -8 181 -21 7 -7 2 -18 -16 -35 -21 -20 -40 -25
-112 -31 -47 -3 -99 -13 -115 -22 -17 -8 -45 -14 -62 -12 l-32 3 -5 70 c-6 84
-34 140 -70 140 -19 0 -26 9 -37 49 -8 26 -11 56 -7 65 4 9 8 23 8 32 1 19
134 129 156 129 9 0 23 9 33 20 19 23 69 27 85 7 12 -14 102 -11 102 4 0 5
-18 18 -39 29 -22 11 -42 23 -44 27 -8 12 -40 242 -41 292 -1 36 3 45 21 52
23 9 39 48 29 74 -3 8 -6 81 -7 163 -1 159 -9 225 -35 285 -32 72 -48 38 -28
-58 10 -47 14 -118 12 -224 l-3 -156 -14 75 c-7 41 -22 98 -33 127 -18 46 -21
74 -17 133 1 18 -27 190 -40 242 -7 28 -5 38 5 42 8 3 14 16 14 29 0 13 7 46
15 73 9 27 21 65 27 84 11 37 83 140 97 140 4 0 12 -15 17 -32z m1366 2 c75
-41 83 -52 85 -129 1 -36 2 -68 3 -70 0 -2 7 2 15 9 14 12 20 7 16 -14 -1 -5
9 -21 23 -35 28 -30 46 -88 46 -148 0 -23 9 -66 21 -95 45 -115 42 -334 -8
-473 -30 -84 -32 -97 -15 -102 7 -3 19 10 27 30 8 20 19 38 23 41 14 9 30 82
43 201 14 128 3 236 -37 373 -28 100 -28 92 -9 92 32 0 128 -243 128 -325 0
-85 -14 -183 -34 -243 -12 -35 -19 -66 -15 -69 19 -20 53 37 70 120 4 15 10
27 14 27 5 0 24 -32 43 -72 19 -39 55 -105 82 -144 26 -40 52 -95 58 -121 10
-44 8 -53 -16 -108 -27 -59 -28 -60 -37 -32 -13 37 -34 29 -30 -12 1 -17 0
-31 -3 -31 -2 0 -26 33 -53 73 l-48 72 71 3 c38 2 74 7 78 11 5 5 -8 21 -29
35 -33 22 -49 26 -114 26 -42 0 -100 -6 -130 -14 -30 -8 -75 -17 -100 -21
-102 -16 -101 -47 2 -49 43 -2 77 -9 106 -25 59 -30 129 -96 153 -143 23 -45
44 -49 56 -11 9 27 10 27 21 7 15 -29 32 -174 23 -194 -5 -8 -11 -34 -14 -58
-7 -54 -92 -158 -140 -170 -21 -5 -41 -21 -56 -45 -40 -61 -54 -25 -26 67 27
89 17 148 -49 290 -27 58 -43 81 -71 97 -42 25 -39 33 10 31 93 -4 225 -122
225 -202 0 -25 29 -38 41 -19 15 24 10 58 -16 107 -35 68 -53 86 -120 125 -81
46 -111 50 -185 26 -56 -18 -64 -18 -113 -5 -117 33 -199 29 -205 -11 -3 -18
4 -20 82 -26 89 -6 218 -50 249 -85 9 -9 33 -53 54 -97 34 -73 38 -87 37 -160
0 -44 -5 -98 -12 -120 -13 -46 -3 -83 29 -103 17 -11 24 -10 48 8 16 11 32 20
35 20 16 0 29 -55 42 -178 l15 -137 -28 -24 c-17 -15 -27 -32 -25 -44 3 -18
-1 -19 -55 -12 -74 8 -157 -6 -252 -45 -40 -17 -84 -30 -97 -30 -13 0 -24 -4
-24 -10 0 -8 -81 -54 -85 -47 -11 16 -51 131 -61 175 -81 343 -86 371 -114
647 -28 274 28 906 90 1024 11 20 33 65 49 102 17 36 46 82 66 102 l35 36 -38
20 c-21 10 -44 32 -51 48 -7 15 -17 35 -22 43 -5 8 -20 37 -33 63 l-25 49 25
-16 c13 -9 35 -23 49 -32 41 -27 71 -7 77 49 6 53 44 137 62 137 7 0 38 -14
68 -30z m-616 -189 c-5 -84 -3 -154 3 -182 6 -26 20 -185 31 -355 11 -170 26
-343 34 -384 8 -41 20 -106 26 -145 14 -79 73 -316 89 -357 5 -14 15 -29 20
-33 6 -3 11 -21 11 -40 0 -18 5 -57 11 -87 18 -93 27 -140 55 -291 28 -146 28
-147 9 -166 -13 -13 -38 -21 -70 -23 l-50 -3 -8 70 c-4 39 -18 117 -31 175
-24 102 -38 191 -56 355 -11 99 -28 192 -42 225 -5 13 -16 76 -24 140 -7 63
-18 126 -23 140 -24 66 -45 262 -46 430 0 78 -3 95 -15 95 -22 0 -33 -129 -20
-235 5 -47 10 -111 10 -143 0 -32 9 -95 19 -140 11 -45 25 -116 31 -157 6 -41
20 -113 31 -160 12 -47 25 -132 29 -190 4 -58 13 -130 19 -160 6 -30 18 -91
26 -135 9 -44 20 -98 25 -120 5 -22 14 -71 20 -110 6 -38 16 -92 21 -120 6
-27 13 -65 16 -82 l5 -33 -48 0 c-45 0 -56 5 -124 60 -41 32 -87 69 -102 80
-27 21 -28 25 -28 113 0 51 7 180 16 287 8 107 16 252 17 322 1 69 5 129 8
132 3 4 4 44 2 89 -3 45 -5 89 -5 97 0 48 -33 259 -53 340 -25 99 -64 283 -92
430 -9 47 -28 128 -44 180 -38 130 -61 221 -56 226 2 3 34 -9 70 -25 l66 -30
83 20 c46 11 92 26 103 34 11 7 24 10 29 7 5 -3 6 -64 2 -141z m-992 -41 c8
-47 21 -114 29 -150 9 -36 18 -114 22 -175 4 -72 15 -138 31 -189 24 -78 48
-207 47 -256 -1 -35 16 -176 27 -230 5 -25 11 -62 14 -83 l5 -38 -37 3 c-37 3
-37 4 -54 68 -9 36 -17 87 -17 114 -1 48 -7 89 -36 241 -8 39 -21 131 -31 205
-9 74 -21 144 -27 155 -5 10 -14 58 -18 105 -11 116 -25 208 -38 250 -6 19
-11 40 -11 46 0 12 73 35 77 25 1 -3 9 -44 17 -91z m-1608 8 c67 -96 99 -169
81 -187 -21 -21 -36 -11 -78 52 -23 34 -53 75 -66 90 -24 30 -30 75 -13 108 6
10 12 19 15 19 2 0 29 -37 61 -82z m-144 -56 c5 -18 12 -32 17 -32 7 0 81
-103 81 -114 0 -8 -68 -36 -88 -36 -20 0 -47 50 -73 139 -12 41 -12 44 12 62
31 24 41 20 51 -19z m1084 -77 c7 -10 25 -31 39 -47 42 -47 90 -129 114 -195
13 -35 37 -84 53 -109 29 -46 29 -47 11 -72 -10 -13 -42 -33 -72 -44 -125 -47
-291 -195 -291 -261 0 -13 -6 -18 -22 -15 -19 2 -24 10 -26 42 -2 21 -10 45
-18 53 -8 8 -14 21 -14 28 0 8 -25 51 -55 95 -30 44 -55 83 -55 86 0 2 20 35
44 72 52 77 92 202 75 233 -14 27 -28 23 -43 -12 -23 -55 -26 -15 -3 44 14 35
28 57 38 57 8 0 31 16 50 36 33 35 36 36 98 32 47 -3 67 -9 77 -23z m-1197
-65 c16 -54 56 -98 95 -105 21 -4 54 1 95 15 49 16 70 19 92 11 21 -7 31 -6
40 5 16 20 26 18 68 -14 20 -15 65 -43 101 -62 75 -39 215 -142 223 -164 4 -9
13 -16 22 -16 8 0 15 -3 15 -7 0 -5 25 -39 55 -76 37 -46 60 -86 71 -125 9
-31 21 -63 27 -71 7 -7 13 -31 14 -52 2 -30 -4 -47 -32 -84 -43 -55 -89 -98
-132 -122 -29 -15 -34 -15 -50 -2 -10 8 -31 21 -48 29 -16 8 -46 26 -65 41
-117 89 -310 129 -620 131 -96 0 -200 -4 -230 -10 -30 -6 -81 -13 -113 -16
l-57 -6 -30 47 c-17 26 -30 55 -30 64 0 10 -4 21 -10 24 -21 13 -7 35 70 111
44 43 80 82 80 87 0 5 29 42 65 83 36 41 65 78 65 82 0 4 19 27 41 52 22 25
65 78 96 118 30 39 58 72 62 72 4 0 13 -18 20 -40z m546 -19 c3 -5 27 -17 54
-26 28 -9 52 -22 54 -28 2 -8 39 -13 113 -14 60 -1 111 -5 112 -8 2 -4 -26
-44 -63 -91 -57 -72 -69 -83 -85 -74 -10 6 -22 15 -25 20 -8 12 -192 136 -252
170 -23 13 -44 29 -47 37 -4 11 -1 11 14 3 11 -6 25 -8 31 -4 6 4 14 2 18 -3
3 -6 23 -13 44 -16 40 -6 49 7 20 29 -10 7 -13 14 -6 14 6 0 14 -4 18 -9z
m490 -721 c10 -11 23 -20 28 -20 6 0 26 -10 44 -22 30 -21 33 -27 28 -56 -13
-70 -195 -290 -269 -326 l-31 -15 -23 50 c-13 27 -46 74 -74 104 -50 55 -72
62 -102 34 -14 -12 25 -79 51 -90 24 -9 73 -79 73 -104 0 -8 -6 -15 -12 -15
-7 0 -25 -6 -40 -14 -14 -8 -49 -19 -77 -25 -64 -14 -105 -31 -155 -65 -78
-53 -164 -29 -211 58 -22 40 -55 49 -55 16 0 -88 122 -191 208 -175 37 7 113
41 122 55 8 13 81 38 128 44 24 4 51 11 60 16 31 17 94 40 112 40 19 0 18 8
40 -245 9 -115 9 -135 -6 -174 -16 -42 -16 -44 4 -64 17 -17 24 -18 36 -8 8 7
21 9 28 5 7 -4 80 -11 163 -16 82 -4 163 -9 179 -10 40 -4 56 22 34 59 -9 16
-21 55 -27 88 -6 33 -20 114 -32 180 -11 66 -27 150 -35 187 -8 37 -14 73 -14
81 0 16 125 77 157 77 25 0 35 -10 24 -24 -20 -25 -53 -157 -45 -184 4 -15 6
-35 5 -45 -1 -10 2 -24 7 -30 5 -7 12 -24 16 -40 4 -15 22 -43 42 -61 39 -36
45 -67 26 -126 -53 -160 -60 -218 -41 -325 30 -168 18 -203 -63 -191 -24 4
-90 9 -148 12 -96 5 -116 3 -224 -25 -65 -17 -162 -36 -215 -41 -53 -6 -154
-24 -226 -39 -153 -34 -249 -48 -401 -57 l-112 -7 -13 37 c-14 38 -42 49 -53
19 -5 -12 -9 -14 -18 -5 -8 8 -12 49 -11 117 1 58 -3 107 -8 111 -5 3 -9 20
-9 37 0 79 -44 149 -85 133 -21 -8 -21 -76 0 -76 23 0 24 -77 1 -95 -7 -6 -22
-28 -34 -51 -11 -22 -28 -46 -36 -53 -18 -15 -21 -41 -5 -41 5 0 30 16 54 36
23 20 47 37 51 38 5 0 8 -17 6 -39 -1 -22 4 -66 12 -98 8 -34 10 -60 4 -63 -5
-3 -13 -16 -18 -29 -15 -39 -197 -88 -264 -71 -15 4 -38 20 -53 36 -30 34
-102 65 -131 56 -35 -11 -40 12 -27 134 6 63 10 142 9 175 -2 33 -3 96 -4 140
-1 44 -6 98 -11 121 -10 48 1 150 30 277 21 90 31 176 51 442 16 209 7 190 92
204 40 7 96 16 123 21 28 5 77 14 109 20 33 5 92 10 131 10 72 0 73 0 73 -27
0 -15 4 -29 10 -31 26 -8 -39 -249 -82 -302 -36 -45 -48 -154 -25 -229 6 -20
15 -49 20 -66 7 -23 5 -33 -9 -47 -31 -30 -135 -88 -160 -88 -35 0 -22 -24 15
-28 38 -4 141 44 197 92 l40 33 -19 39 c-12 25 -20 70 -23 129 -4 82 -2 96 21
145 84 181 87 190 87 268 0 57 -4 80 -17 94 -17 19 -15 19 82 13 102 -7 312
-41 330 -54 6 -4 26 -14 45 -21 19 -8 62 -32 95 -54 143 -95 136 -93 192 -60
48 28 155 132 181 176 19 33 51 36 77 8z m150 -255 c-5 -66 -10 -85 -22 -85
-8 0 -48 -16 -89 -35 -102 -49 -119 -46 -61 11 26 25 75 82 108 126 34 43 63
77 66 74 3 -3 2 -44 -2 -91z m-35 -217 c22 -103 90 -462 90 -476 0 -13 -19
-14 -120 -8 -173 10 -165 4 -168 122 -2 55 -10 155 -18 223 -17 137 -15 140
41 141 17 0 53 11 80 24 75 36 82 34 95 -26z m505 -14 c11 -28 32 -65 48 -83
15 -18 29 -45 32 -59 3 -15 15 -61 26 -102 39 -138 41 -153 28 -192 -7 -22 -9
-56 -5 -87 7 -54 3 -58 -37 -40 -19 8 -31 8 -53 -4 -16 -8 -61 -20 -101 -26
-40 -6 -84 -16 -98 -23 -34 -15 -40 -6 -27 39 17 60 44 175 50 212 7 52 -17
141 -49 183 l-30 37 23 3 c18 2 23 9 23 32 0 24 -6 30 -35 40 -28 9 -36 17
-38 41 -4 29 -3 29 15 12 11 -9 32 -17 46 -17 30 0 91 35 121 69 26 29 37 23
61 -35z m1539 -655 c4 -22 20 -67 36 -100 33 -64 51 -72 105 -47 31 14 34 11
50 -54 8 -29 22 -87 33 -128 74 -283 100 -425 112 -605 5 -77 12 -183 16 -235
10 -138 7 -564 -5 -790 -6 -107 -14 -256 -18 -331 l-6 -136 -86 -7 c-47 -4
-91 -12 -97 -17 -16 -13 -129 10 -206 43 -37 15 -76 28 -87 28 -24 0 -25 4
-10 31 28 53 53 312 64 669 3 121 -10 339 -32 520 -8 69 -19 168 -24 220 -4
52 -13 145 -19 205 -10 115 -36 266 -50 300 -4 11 -15 36 -24 57 -9 20 -16 51
-16 70 0 40 -24 78 -49 78 -20 0 -31 -19 -31 -50 0 -10 -10 -20 -21 -23 -16
-4 -20 -10 -14 -24 17 -42 16 -117 -4 -224 -40 -217 -50 -305 -56 -474 -7
-197 -10 -215 -31 -215 -12 0 -15 -6 -10 -22 4 -13 11 -93 17 -178 20 -349 27
-442 43 -580 16 -137 41 -328 53 -396 4 -29 3 -31 -26 -32 -16 0 -43 -10 -58
-21 -16 -11 -59 -24 -97 -30 -101 -15 -110 -39 -41 -109 45 -46 95 -123 95
-148 0 -21 -20 -27 -26 -7 -16 54 -54 108 -96 139 -40 30 -48 41 -52 77 -8 68
-38 307 -47 372 -23 170 -41 306 -45 360 -3 33 -14 94 -24 135 -36 145 -41
187 -50 440 -10 277 -11 281 -65 544 -22 107 -35 190 -31 208 3 17 -3 82 -15
147 -26 149 -27 162 -9 171 8 5 48 16 89 25 41 9 124 39 185 67 70 31 128 51
156 52 42 3 49 -1 115 -59 73 -66 117 -85 192 -85 29 0 50 7 67 23 26 22 26
23 11 71 -18 59 -9 76 41 76 21 0 41 8 52 19 27 30 39 25 46 -20z m490 -82
c22 -76 53 -284 65 -422 13 -158 20 -634 12 -825 -4 -88 -27 -464 -35 -560
-29 -348 -27 -339 -89 -406 -76 -80 -81 -76 -73 59 4 61 12 159 18 217 14 128
16 794 4 1055 -6 144 -15 224 -37 330 -53 257 -76 349 -104 429 -18 52 -25 84
-19 93 16 25 216 98 236 86 4 -2 14 -27 22 -56z m-2018 -184 l-26 -55 26 6
c30 8 27 2 -20 -56 -17 -21 -37 -38 -43 -38 -7 0 -22 18 -33 39 -11 22 -24 42
-30 46 -5 3 -10 19 -10 34 0 16 -7 34 -15 41 -22 18 -20 54 3 45 43 -18 54
-17 82 10 16 16 42 46 57 68 l28 41 3 -63 c2 -50 -2 -73 -22 -118z m-343 -33
c52 -13 60 -13 88 4 17 10 33 15 36 12 4 -3 9 -77 13 -164 4 -87 9 -163 12
-168 9 -13 38 -262 44 -369 3 -49 7 -92 9 -95 4 -7 37 -206 55 -330 6 -47 20
-121 31 -165 10 -45 19 -96 19 -114 0 -40 16 -141 36 -228 8 -34 14 -75 14
-91 0 -16 6 -45 14 -63 8 -19 16 -51 18 -73 l3 -39 -55 -18 c-83 -28 -295 -61
-480 -74 -41 -3 -100 -12 -131 -20 -30 -7 -104 -21 -165 -30 -131 -19 -150
-25 -282 -88 -119 -58 -205 -77 -347 -78 -55 0 -154 -4 -220 -9 -128 -9 -268
5 -339 35 -19 8 -56 15 -81 15 -32 0 -66 10 -115 35 -38 19 -80 35 -92 36 -46
1 -92 25 -98 50 -9 34 15 314 44 514 35 243 45 355 52 569 4 103 9 231 13 284
l6 95 30 3 c25 3 34 -3 55 -35 14 -21 54 -62 89 -90 l64 -51 84 0 c46 0 91 5
101 11 16 10 26 3 74 -47 117 -124 192 -212 245 -286 50 -72 83 -97 83 -65 0
7 -16 37 -36 67 -20 30 -45 73 -54 95 -10 22 -29 51 -42 65 -13 14 -37 41 -53
61 -17 20 -85 96 -152 169 -84 90 -123 140 -123 156 0 15 15 36 44 60 24 20
49 47 55 60 9 20 18 24 58 24 l48 0 150 -172 c83 -95 191 -214 240 -266 50
-52 91 -104 93 -116 1 -11 5 -47 8 -79 6 -57 8 -61 77 -131 40 -39 84 -82 100
-94 52 -42 25 -112 -45 -112 -31 0 -49 25 -53 75 -6 64 -91 165 -139 165 -12
0 -27 5 -34 12 -9 9 -20 9 -50 -1 -59 -22 -81 -39 -75 -61 5 -20 37 -27 47
-11 12 18 55 18 72 0 10 -11 26 -19 36 -19 35 0 89 -82 102 -151 8 -44 19 -54
69 -63 71 -13 165 58 153 115 -3 16 -1 31 4 34 19 12 10 31 -25 49 -19 10 -66
51 -105 91 -54 56 -70 79 -70 101 1 26 2 27 14 12 18 -24 33 -23 41 2 9 28
-31 80 -179 230 -67 69 -132 139 -145 155 -12 17 -72 83 -132 147 -87 93 -109
122 -109 145 0 57 -117 160 -140 123 -11 -18 -1 -40 19 -40 9 0 31 -15 49 -33
40 -41 29 -57 -39 -57 -40 0 -51 -4 -73 -31 -14 -17 -26 -34 -26 -38 0 -4 -20
-22 -44 -39 -29 -21 -49 -45 -56 -68 -25 -74 10 -166 60 -161 33 3 40 -28 7
-36 -37 -10 -121 8 -155 32 -17 12 -48 43 -69 69 -21 26 -44 51 -50 55 -7 4
-13 17 -13 27 0 22 -10 26 -27 9 -21 -21 -31 -1 -21 38 5 21 13 84 17 140 4
56 10 105 13 109 4 3 25 -1 48 -10 22 -9 69 -16 103 -16 70 0 211 37 254 66
23 16 49 19 153 20 177 2 441 40 564 81 27 9 79 17 115 18 102 3 219 23 266
45 61 29 229 33 328 10z m791 -372 c4 -35 14 -90 22 -123 29 -115 33 -141 34
-220 0 -44 5 -120 10 -170 5 -49 14 -170 20 -267 10 -160 22 -259 51 -398 16
-82 28 -163 24 -170 -2 -3 2 -24 9 -46 12 -34 29 -183 51 -441 l6 -73 -54 0
c-73 0 -80 9 -62 94 9 41 15 144 17 264 3 175 1 201 -15 230 -10 19 -20 32
-22 30 -2 -2 -7 -105 -10 -228 -6 -228 -22 -340 -50 -340 -18 0 -26 89 -15
157 36 220 51 397 50 603 0 118 -2 231 -4 250 -2 19 -9 107 -15 195 -21 296
-31 386 -46 420 -17 42 -33 311 -18 302 6 -4 14 -35 17 -69z m-914 -1664 c0
-3 -5 -15 -12 -27 -21 -40 -99 -231 -121 -295 l-20 -63 -36 6 c-20 3 -72 19
-116 34 l-80 29 0 53 c1 50 39 194 54 204 10 5 206 46 266 55 28 4 53 8 58 9
4 0 7 -2 7 -5z m2120 -168 c119 -1 130 -20 40 -66 -63 -32 -85 -58 -75 -90 8
-26 35 -26 35 0 0 12 12 26 30 35 28 14 30 14 30 -2 0 -10 -9 -33 -20 -51 -26
-42 -27 -85 -2 -80 9 2 18 13 20 26 5 36 22 25 22 -14 l0 -36 -77 7 c-43 5
-93 9 -111 10 -24 1 -44 12 -70 38 -20 20 -33 39 -29 43 4 4 35 -7 68 -24 65
-34 107 -40 127 -20 15 15 16 42 2 33 -33 -21 -170 79 -170 123 0 11 12 34 28
51 22 26 32 30 52 24 14 -4 59 -7 100 -7z m-515 -78 c53 -60 61 -82 45 -114
-8 -14 -26 -28 -42 -31 -15 -3 -33 -12 -39 -19 -17 -20 -28 -17 -39 10 -5 14
-27 55 -50 91 -22 37 -40 69 -40 71 0 2 10 4 23 5 12 0 38 6 57 13 19 8 38 14
41 15 4 0 23 -18 44 -41z m911 -120 c30 -46 30 -58 3 -51 -19 5 -21 3 -16 -18
8 -31 2 -39 -52 -68 l-43 -24 -27 26 c-57 56 -71 66 -86 61 -11 -5 -15 1 -15
20 0 22 11 31 92 70 102 50 103 49 144 -16z m-2960 0 c41 -23 155 -62 227 -78
46 -11 74 -11 135 -2 184 28 189 28 224 -7 18 -17 50 -36 73 -42 22 -6 50 -15
63 -20 13 -5 34 -9 47 -9 30 0 55 -43 55 -92 0 -41 -30 -106 -60 -133 -27 -25
-126 -27 -240 -5 -41 8 -102 14 -135 15 -51 0 -63 4 -82 25 -12 14 -23 33 -23
44 0 14 -5 17 -23 12 -13 -3 -38 -1 -56 4 -25 7 -45 4 -90 -12 l-59 -21 -91
43 c-104 50 -100 41 -80 186 13 93 41 143 68 122 9 -7 30 -21 47 -30z m3214
-78 c-1 -46 -15 -63 -74 -92 -78 -37 -101 -51 -124 -71 -21 -19 -99 -36 -182
-40 -53 -2 -57 0 -92 38 -20 22 -35 42 -32 44 5 5 85 -19 100 -31 6 -4 13 -6
16 -3 2 3 19 7 38 9 18 2 35 9 39 14 4 6 37 21 73 32 37 11 70 25 73 30 3 6
17 10 31 10 17 0 24 5 24 20 0 13 7 20 20 20 12 0 26 12 35 30 14 26 18 28 35
18 11 -7 20 -20 20 -28z"/>
<path d="M2614 5979 c-29 -4 -65 -17 -83 -30 -49 -36 -36 -56 15 -23 16 11 48
17 89 18 62 1 84 -8 48 -20 -48 -16 -133 -81 -133 -102 0 -4 15 -25 34 -46 30
-35 36 -38 68 -32 45 8 77 31 63 45 -8 8 -20 7 -43 -1 -29 -11 -34 -10 -55 10
l-22 23 34 28 c44 36 118 77 126 69 4 -3 1 -15 -7 -27 -9 -16 -10 -23 -1 -32
9 -9 23 -7 60 9 51 22 66 49 38 72 -8 7 -15 18 -15 26 0 7 -9 15 -20 19 -22 7
-121 4 -196 -6z"/>
<path d="M2958 5443 c-26 -25 -28 -26 -46 -10 -26 23 -42 21 -82 -13 -19 -17
-44 -30 -57 -30 -12 0 -27 -9 -33 -20 -10 -19 -8 -19 33 -14 27 4 55 1 78 -9
38 -16 88 -13 135 9 51 22 57 36 37 78 -22 43 -30 44 -65 9z"/>
<path d="M5647 4038 c-8 -18 -23 -53 -35 -78 -26 -59 -42 -131 -44 -203 -2
-61 8 -82 35 -71 20 7 24 23 31 115 6 76 37 167 72 208 28 34 30 47 8 55 -35
13 -54 6 -67 -26z"/>
<path d="M4874 3754 c-9 -34 12 -56 30 -31 7 9 18 17 24 17 13 0 37 -34 47
-67 8 -29 -15 -31 -40 -3 -20 22 -55 27 -55 7 0 -23 58 -77 83 -77 66 0 75 93
15 158 -15 15 -33 22 -60 22 -32 0 -39 -4 -44 -26z"/>
<path d="M1799 4219 c-144 -148 -172 -186 -182 -252 -3 -22 -18 -54 -32 -73
-25 -33 -26 -54 -2 -54 23 0 97 84 97 110 0 35 49 116 107 175 27 28 57 61 66
75 55 79 70 96 90 100 25 7 31 50 9 58 -8 2 -75 -58 -153 -139z"/>
<path d="M1945 3690 c-3 -5 -3 -20 0 -33 9 -34 -12 -39 -87 -22 -156 34 -228
36 -228 5 0 -22 5 -24 95 -39 39 -7 102 -18 142 -26 42 -8 83 -10 100 -6 25 7
28 12 25 42 -1 19 -5 44 -7 55 -5 24 -31 39 -40 24z"/>
<path d="M1676 3553 c-14 -14 -4 -29 32 -46 20 -10 50 -29 67 -42 l29 -24 -23
-53 c-54 -122 -31 -147 36 -39 24 38 46 81 49 97 5 26 0 32 -43 59 -26 16 -55
32 -63 36 -27 11 -78 18 -84 12z"/>
<path d="M1495 3480 c-3 -5 -1 -17 4 -27 5 -10 19 -49 31 -87 11 -38 29 -81
39 -95 10 -14 23 -40 29 -58 18 -53 113 -183 153 -210 22 -14 39 -30 39 -34 0
-5 7 -9 15 -9 27 0 17 47 -14 69 -63 45 -197 272 -223 376 -17 70 -53 107 -73
75z"/>
<path d="M3700 3933 c-40 -8 -100 -61 -100 -89 0 -31 20 -31 49 0 26 27 78 41
97 25 7 -6 20 -33 29 -60 18 -52 51 -82 61 -55 3 8 -2 35 -10 60 -9 26 -16 51
-16 57 0 6 -9 24 -21 40 -20 29 -33 32 -89 22z"/>
<path d="M4465 7031 c-64 -16 -127 -40 -165 -62 -8 -5 -28 -15 -45 -23 -36
-16 -70 -52 -80 -84 -9 -31 25 -162 42 -162 7 0 13 8 13 18 1 10 9 2 21 -20
28 -54 41 -48 37 19 l-3 57 50 14 c28 8 77 27 111 43 123 58 352 57 481 -1 75
-34 101 -54 114 -87 14 -37 47 -29 66 15 10 20 24 45 31 54 9 10 12 28 9 45
-3 15 -9 42 -12 58 -3 17 -8 40 -11 51 -4 25 -13 29 -114 56 -110 29 -444 35
-545 9z m435 -50 c112 -15 180 -39 191 -68 11 -29 -1 -105 -17 -110 -5 -2 -30
15 -55 37 -24 22 -50 40 -57 40 -7 0 -34 10 -60 22 -40 18 -69 23 -188 26
-153 5 -208 -5 -295 -51 -25 -14 -70 -32 -100 -41 -39 -11 -59 -23 -69 -40
-17 -32 -30 -24 -30 17 0 43 5 49 75 84 86 45 136 64 202 78 67 15 308 18 403
6z"/>
<path d="M4840 6783 c-61 -10 -88 -25 -100 -53 -20 -48 -9 -147 24 -210 38
-74 54 -90 88 -90 45 0 60 47 61 194 1 166 -1 171 -73 159z m47 -110 c7 -64
-4 -176 -21 -198 -12 -16 -15 -16 -44 11 -17 16 -33 39 -37 52 -6 19 -3 22 24
22 41 0 69 40 53 75 -13 27 -37 32 -77 13 -32 -14 -36 -10 -29 34 6 31 11 37
53 50 58 19 69 10 78 -59z"/>
<path d="M6500 6764 c-25 -8 -57 -12 -72 -8 -23 4 -28 2 -28 -13 0 -40 15 -46
84 -40 36 3 66 5 66 3 0 -2 6 -41 14 -87 20 -116 28 -254 19 -314 l-8 -50 -85
-22 c-67 -18 -91 -20 -112 -12 -33 14 -61 -8 -56 -43 3 -20 9 -23 48 -23 46 1
214 32 240 45 31 15 41 96 35 270 -4 91 -11 183 -17 205 -5 22 -12 55 -15 73
-5 28 -9 32 -37 31 -17 -1 -51 -7 -76 -15z"/>
<path d="M4493 6733 c-21 -3 -42 -16 -59 -36 -24 -28 -26 -37 -21 -88 3 -30 9
-64 15 -75 5 -10 17 -35 25 -55 9 -20 30 -53 48 -73 68 -79 103 -23 101 164
l-1 115 -30 27 c-17 16 -35 27 -39 26 -4 0 -21 -3 -39 -5z m41 -46 c16 -12 42
-94 32 -104 -2 -3 -14 1 -26 7 -30 16 -52 -4 -48 -44 2 -24 9 -32 26 -34 13
-2 30 2 38 8 11 10 14 8 13 -11 0 -13 -3 -42 -7 -63 l-7 -40 -41 47 c-46 52
-64 101 -64 176 0 44 3 53 23 61 31 12 41 12 61 -3z"/>
<path d="M346 6630 c-72 -23 -76 -27 -87 -82 -7 -38 3 -326 17 -493 l5 -61 42
-12 c23 -7 51 -11 62 -11 11 1 52 -2 90 -6 59 -6 73 -5 84 9 11 13 11 16 0 20
-8 2 -29 9 -48 15 -19 6 -57 11 -85 11 -28 0 -57 4 -64 9 -10 6 -15 48 -18
157 -2 82 -6 192 -9 245 -10 151 -2 162 117 175 60 7 83 18 72 36 -9 15 -118
7 -178 -12z"/>
<path d="M4742 6328 l-9 -33 -60 3 c-34 2 -64 -1 -67 -6 -3 -6 8 -22 26 -36
29 -23 31 -25 13 -31 -11 -3 -40 -16 -64 -28 -51 -25 -71 -51 -55 -67 8 -8 24
-3 55 15 43 24 89 33 89 17 0 -12 -59 -45 -110 -62 -50 -17 -58 -33 -20 -38
13 -2 29 -11 35 -19 9 -12 39 -15 152 -17 l141 -1 44 31 c50 37 63 73 26 75
-29 2 -39 4 -58 11 -8 4 -33 10 -55 15 -47 10 -53 33 -13 47 43 15 150 -22
158 -54 10 -42 35 -31 35 15 0 38 -2 41 -50 64 -30 15 -76 27 -115 31 -57 4
-65 8 -65 25 0 17 6 19 33 17 31 -3 33 -2 30 24 -3 24 -8 28 -45 31 -40 4 -43
3 -51 -29z"/>
<path d="M6475 6010 c-27 -4 -64 -5 -81 -2 -42 6 -55 -15 -23 -41 20 -16 36
-18 104 -15 l80 3 12 -49 c19 -75 0 -344 -29 -427 -22 -61 -25 -64 -58 -66
-107 -8 -170 -37 -141 -66 12 -12 210 8 225 23 10 10 23 52 51 173 16 70 20
312 6 386 -6 30 -16 60 -23 68 -18 17 -63 22 -123 13z"/>
<path d="M320 5788 c-19 -5 -47 -19 -63 -30 -26 -19 -28 -25 -23 -57 19 -102
26 -173 36 -351 6 -107 13 -203 16 -212 7 -22 47 -24 64 -3 8 9 10 33 7 67 -3
29 -10 136 -16 238 -6 102 -16 207 -21 234 -7 32 -7 53 -1 59 17 17 83 23 170
13 77 -8 85 -7 98 10 13 17 10 20 -34 31 -56 15 -183 15 -233 1z"/>
<path d="M6485 5204 c-46 -21 -63 -24 -77 -15 -20 12 -62 15 -56 4 24 -50 34
-62 53 -67 24 -6 67 4 111 27 17 9 35 12 40 9 15 -10 34 -130 39 -245 3 -54 7
-102 9 -106 5 -7 -8 -123 -19 -167 -4 -18 -14 -22 -71 -27 -37 -4 -68 -8 -69
-9 -1 -2 -5 -13 -9 -25 -6 -20 -3 -21 99 -28 58 -4 108 -5 111 -3 2 3 6 27 9
54 20 221 21 262 13 293 -6 19 -7 47 -4 62 3 15 -1 65 -9 111 -8 46 -15 98
-15 116 0 17 -1 32 -2 33 -43 12 -101 5 -153 -17z"/>
<path d="M343 4851 c-78 -10 -80 -14 -58 -130 12 -66 16 -125 13 -178 -3 -43
0 -125 6 -183 l11 -105 114 2 c88 1 117 5 129 17 9 9 13 18 10 21 -3 3 -45 7
-94 8 l-89 2 -8 55 c-4 30 -9 144 -11 253 l-3 198 66 -8 c108 -13 160 -9 184
16 16 16 18 21 7 21 -36 2 -119 8 -170 13 -30 3 -79 2 -107 -2z"/>
<path d="M6486 4354 c-9 -8 -16 -26 -16 -40 0 -18 7 -25 28 -30 44 -9 100 -36
106 -49 10 -26 16 -351 9 -425 l-8 -75 -74 -5 c-41 -3 -76 -10 -78 -16 -10
-32 63 -46 158 -31 38 7 49 13 58 35 23 56 18 546 -6 592 -7 14 -13 31 -13 37
0 19 -47 27 -81 13 -23 -10 -33 -10 -42 -1 -15 15 -23 14 -41 -5z"/>
<path d="M347 4140 c-50 -15 -55 -24 -45 -92 4 -34 16 -85 25 -114 14 -46 15
-76 5 -255 -8 -172 -8 -206 4 -215 8 -6 14 -16 14 -23 0 -15 27 -14 75 4 22 8
66 14 98 15 68 0 97 13 97 41 0 20 -3 20 -77 13 -43 -4 -91 -8 -108 -8 l-30
-1 0 220 c0 193 -4 245 -27 345 -2 12 16 17 93 25 89 10 129 24 129 46 0 11
-215 10 -253 -1z"/>
<path d="M6529 3576 c-46 -11 -119 -58 -119 -77 0 -22 34 -20 79 5 56 30 106
34 115 9 4 -9 2 -58 -5 -108 -6 -53 -8 -134 -5 -191 4 -54 8 -121 9 -149 l2
-50 -110 4 c-60 2 -114 5 -118 8 -4 3 -3 11 3 19 7 7 10 18 8 25 -2 6 -20 -9
-41 -34 -53 -64 -42 -70 147 -74 188 -5 182 -9 171 120 -11 126 -11 262 -1
388 l9 106 -24 6 c-32 9 -65 7 -120 -7z"/>
<path d="M520 3355 c-19 -7 -58 -14 -86 -14 -81 -1 -114 -11 -114 -33 0 -10 7
-21 15 -24 10 -4 13 -13 10 -25 -3 -10 -1 -65 6 -121 7 -57 13 -168 14 -248 3
-183 9 -220 40 -220 12 0 36 7 51 15 16 8 55 15 86 15 59 0 108 13 120 33 12
20 -2 27 -45 22 -23 -2 -70 -7 -104 -9 l-62 -6 -8 33 c-4 17 -8 91 -8 162 0
72 -4 171 -9 221 l-9 92 45 26 c25 14 54 26 66 26 22 0 65 47 56 61 -7 12 -22
10 -64 -6z"/>
<path d="M6398 2876 c-26 -7 -54 -18 -62 -26 -37 -30 -2 -59 48 -40 41 15 98
12 176 -9 38 -11 74 -22 80 -26 15 -9 12 -137 -6 -245 -9 -52 -19 -158 -22
-235 l-7 -139 -137 2 c-106 2 -138 0 -138 -10 1 -36 17 -40 176 -49 135 -7
161 -6 174 7 12 12 12 18 2 35 -8 13 -11 32 -7 51 5 20 2 35 -9 47 -14 16 -15
32 -6 132 5 63 14 136 19 163 5 26 10 101 10 165 2 101 -1 119 -16 133 -15 13
-51 23 -208 53 -11 2 -41 -2 -67 -9z"/>
<path d="M570 2545 c-36 -13 -82 -24 -102 -24 -63 -2 -68 -7 -68 -75 0 -33 5
-77 11 -96 13 -43 12 -294 -1 -340 -5 -18 -19 -43 -31 -56 -25 -27 -22 -60 6
-57 11 1 27 0 35 -3 8 -3 75 -6 148 -6 125 0 135 2 148 21 9 12 12 26 9 31 -4
6 -62 10 -140 10 l-134 0 22 48 c19 42 21 64 21 212 0 92 -4 181 -11 201 -6
20 -8 41 -4 46 9 13 113 43 148 43 38 0 86 46 63 60 -22 14 -47 11 -120 -15z"/>
<path d="M6382 2039 c2 -8 18 -15 34 -17 16 -1 55 -10 87 -19 45 -13 62 -14
82 -5 14 7 35 12 45 12 26 0 26 -22 1 -154 -39 -204 -54 -317 -47 -371 l6 -54
-56 -11 c-43 -9 -71 -9 -116 0 -44 8 -68 8 -94 0 -38 -13 -40 -18 -20 -45 18
-25 105 -31 228 -15 80 11 102 17 114 34 20 29 17 45 -11 58 -21 9 -25 18 -25
55 0 36 3 43 18 41 14 -2 16 3 13 27 -9 75 -2 199 18 298 22 114 27 177 12
177 -5 0 -32 -8 -60 -17 -44 -14 -60 -15 -99 -5 -91 23 -135 26 -130 11z"/>
<path d="M653 1814 c-97 -18 -177 -41 -199 -59 -24 -19 -28 -30 -28 -66 2 -71
5 -110 16 -173 11 -70 -5 -215 -30 -257 -17 -30 -10 -62 12 -53 8 3 36 -5 63
-17 148 -67 188 -74 223 -39 27 27 25 54 -5 70 -22 12 -27 11 -39 -5 -13 -18
-16 -17 -90 16 -41 19 -78 39 -80 45 -2 5 3 50 11 100 11 71 12 114 3 213 -6
70 -6 129 -2 133 16 16 116 38 174 38 47 0 59 4 72 22 14 19 14 23 1 30 -12 7
-68 8 -102 2z"/>
</g>
</svg>
