<?xml version="1.0" standalone="no"?>
<!DOCTYPE svg PUBLIC "-//W3C//DTD SVG 20010904//EN"
 "http://www.w3.org/TR/2001/REC-SVG-20010904/DTD/svg10.dtd">
<svg version="1.0" xmlns="http://www.w3.org/2000/svg"
 width="306.000000pt" height="243.000000pt" viewBox="0 0 306.000000 243.000000"
 preserveAspectRatio="xMidYMid meet">
<metadata>
Created by potrace 1.16, written by Peter Selinger 2001-2019
</metadata>
<g transform="translate(0.000000,243.000000) scale(0.100000,-0.100000)"
fill="#000000" stroke="none">
<path d="M1656 2325 c-8 -33 9 -99 41 -154 l26 -44 -18 -79 c-17 -71 -17 -82
-3 -110 13 -29 13 -36 -9 -87 -29 -71 -30 -101 -3 -101 27 0 25 -21 -5 -66
-37 -54 -15 -104 44 -104 l26 0 -30 -19 c-28 -16 -71 -69 -63 -75 2 -2 25 -6
51 -9 36 -5 49 -3 53 7 3 8 14 16 24 19 17 4 17 2 -3 -32 -13 -20 -28 -49 -35
-65 -10 -23 -17 -27 -35 -21 -12 4 -38 9 -57 10 -33 2 -35 4 -33 36 1 19 5 49
8 67 6 25 4 32 -8 32 -10 0 -17 11 -19 28 -2 21 -8 27 -28 27 -21 0 -26 -5
-28 -31 -2 -22 -9 -34 -23 -37 -27 -7 -24 -25 6 -33 14 -3 25 -13 25 -23 0 -9
3 -33 6 -53 6 -31 2 -40 -21 -62 -21 -20 -26 -31 -21 -51 4 -14 11 -25 16 -25
19 0 10 -17 -17 -29 -19 -9 -23 -15 -15 -23 8 -8 7 -16 -1 -29 -9 -14 -9 -24
-1 -37 8 -12 8 -35 1 -79 -9 -52 -8 -65 7 -87 17 -26 19 -27 94 -20 42 3 86
12 97 19 20 12 20 9 23 -173 2 -103 6 -190 8 -194 3 -4 19 -8 35 -8 28 0 30
-2 27 -39 -1 -30 3 -44 19 -58 21 -18 40 -83 24 -83 -5 0 -11 -8 -13 -18 -4
-12 -25 -22 -74 -34 -109 -27 -127 -28 -140 -10 -17 23 -44 -1 -44 -39 0 -62
62 -86 138 -53 25 11 81 18 170 21 72 3 132 8 132 11 0 3 -19 43 -42 89 -22
46 -39 86 -35 89 9 10 381 4 417 -6 44 -13 43 -13 36 5 -3 9 0 15 8 15 10 0
15 -17 18 -52 6 -70 1 -81 -30 -73 -26 6 -122 -23 -122 -37 0 -12 13 -10 55 8
21 9 49 13 65 9 38 -8 62 17 55 58 -12 77 -10 101 7 105 14 3 18 -7 24 -48 4
-31 18 -68 35 -93 52 -76 50 -77 -123 -71 -126 4 -153 7 -164 21 -6 10 -9 23
-6 31 3 10 -1 13 -14 10 -24 -4 -24 -17 2 -50 20 -26 21 -26 187 -29 91 -2
169 0 173 4 9 9 -15 66 -43 100 -13 16 -23 39 -23 51 0 21 6 24 60 30 33 4 60
11 60 16 0 5 7 6 17 3 10 -4 14 -2 10 4 -23 37 -399 58 -600 33 -38 -5 -102
-6 -143 -3 l-74 6 0 32 c0 38 15 53 50 53 47 -1 305 13 327 18 20 4 21 6 7 32
-11 21 -14 77 -14 262 1 129 4 241 8 248 5 6 9 -101 10 -238 0 -138 5 -257 9
-264 4 -8 8 117 8 277 l0 292 -44 -4 c-24 -2 -40 -6 -35 -10 5 -3 8 -137 6
-299 l-4 -293 -36 7 c-20 4 -38 8 -39 9 -2 1 -7 24 -13 52 -27 144 4 523 44
523 6 0 5 5 -2 12 -7 7 -15 8 -20 3 -12 -14 -32 -133 -32 -191 0 -27 -5 -56
-10 -64 -14 -21 -11 142 4 188 8 27 7 37 -1 39 -7 3 -9 11 -6 19 4 12 0 14
-18 9 -13 -3 -44 -9 -69 -13 -47 -8 -49 -11 -66 -102 l-4 -25 10 24 c19 43 20
17 4 -79 -16 -102 -20 -112 -35 -90 -13 20 0 -289 13 -314 10 -18 7 -18 -32
-12 -24 4 -47 9 -52 12 -11 7 -1 345 12 399 5 22 10 59 10 83 0 28 5 45 15 48
8 4 15 17 15 29 0 21 6 25 48 30 26 4 79 13 118 21 69 15 237 14 251 0 10 -10
135 -7 173 4 20 6 36 6 38 1 2 -5 30 -7 63 -4 32 3 59 3 59 -1 0 -3 -11 -23
-24 -44 -14 -20 -28 -49 -31 -65 -4 -15 -10 -29 -14 -31 -3 -2 -31 4 -61 15
-30 10 -65 19 -78 19 l-23 0 20 27 c23 28 21 43 -4 23 -12 -10 -15 -9 -16 6
-1 11 -6 -1 -11 -26 -6 -25 -13 -39 -15 -32 -3 6 -9 12 -14 12 -6 0 -8 -18 -3
-45 3 -25 2 -57 -2 -72 -7 -22 -10 -10 -15 57 l-6 85 -1 -110 c0 -116 -16
-294 -31 -358 -7 -28 -6 -37 2 -34 7 2 15 30 19 63 18 148 28 215 46 294 l19
85 37 3 c21 2 56 -4 77 -12 22 -9 51 -16 64 -16 21 0 25 5 25 31 0 34 13 64
43 96 16 19 18 25 7 38 -11 13 -7 15 29 15 34 0 48 7 83 40 38 36 40 40 20 40
-14 0 -29 -11 -42 -32 -11 -18 -20 -27 -20 -19 0 8 11 29 26 48 14 18 21 33
15 33 -5 0 -18 -12 -29 -27 -11 -16 -23 -25 -26 -22 -3 3 -9 30 -12 60 -12
110 -74 253 -147 335 -44 50 -105 84 -186 105 -37 9 -56 20 -61 34 -5 11 -15
40 -24 65 -22 61 -141 205 -212 258 -98 72 -212 142 -230 142 -9 0 20 -24 65
-52 167 -107 210 -144 281 -234 50 -63 74 -105 85 -144 9 -30 18 -61 20 -67 2
-7 18 -13 34 -13 16 0 62 -12 101 -26 88 -33 131 -79 194 -207 40 -82 74 -193
62 -204 -2 -2 -30 10 -61 26 -43 23 -61 28 -71 20 -7 -5 -19 -9 -27 -7 -16 3
-107 -124 -107 -149 0 -8 -13 -13 -35 -13 -19 0 -35 2 -35 4 0 2 11 26 24 53
69 138 126 311 126 385 0 32 -33 58 -70 57 -24 -1 -24 -1 5 -11 36 -13 45 -25
45 -58 0 -48 -47 -215 -74 -265 -15 -27 -25 -42 -22 -32 34 112 38 136 34 201
-3 39 -10 82 -17 94 -17 32 -23 23 -11 -19 20 -67 12 -168 -20 -261 -47 -140
-43 -136 -164 -136 -56 0 -121 -5 -143 -11 -42 -11 -133 -23 -187 -25 -26 -1
-31 3 -37 33 -10 47 -2 61 35 62 27 0 28 2 11 10 -15 7 -12 8 15 4 21 -3 70 4
115 16 44 11 96 19 115 17 45 -6 77 20 60 49 -10 15 -7 35 14 101 14 46 26 90
26 98 0 67 100 171 140 146 13 -8 21 -8 26 -1 9 15 -1 22 -45 26 -46 5 -79
-10 -142 -63 -24 -20 -82 -55 -129 -77 -47 -22 -96 -48 -110 -58 -21 -14 -43
-17 -113 -15 -103 3 -127 17 -111 63 12 36 78 71 99 53 13 -10 15 -8 15 13 0
30 -15 44 -24 22 -3 -8 -16 -15 -28 -15 -22 1 -22 1 -4 15 12 9 16 20 12 32
-4 10 -10 13 -14 8 -7 -10 -62 -17 -62 -9 0 2 11 33 25 70 14 36 25 77 25 90
0 34 28 31 33 -3 l4 -28 2 28 c1 31 7 33 33 10 21 -19 25 -1 3 20 -13 13 -13
16 1 21 9 3 20 4 25 1 19 -12 39 -113 39 -198 0 -107 9 -111 14 -6 3 69 -12
167 -34 214 -5 11 -20 48 -34 83 -22 55 -89 162 -102 162 -3 0 -2 -17 2 -37 6
-35 5 -37 -9 -18 -32 43 -48 149 -24 158 7 4 6 6 -4 6 -10 1 -19 -10 -23 -24z
m466 -702 c-4 -103 -17 -139 -63 -183 -42 -40 -105 -60 -194 -63 l-50 -2 -9
48 c-13 66 1 78 54 48 22 -12 48 -21 58 -19 10 2 -5 14 -41 32 -38 18 -57 33
-53 41 3 8 0 16 -7 18 -16 6 1 22 31 32 18 5 30 -1 58 -32 19 -21 37 -48 40
-60 5 -20 24 -33 24 -18 0 13 -34 71 -53 92 l-20 22 24 20 c13 11 44 28 69 37
25 10 63 28 85 40 22 13 42 23 45 24 3 0 4 -35 2 -77z m-396 -262 c24 -15 33
-28 36 -58 3 -21 4 -40 2 -42 -2 -3 -27 6 -54 19 l-51 24 -47 -23 -47 -23 20
22 20 23 -25 -6 c-24 -6 -24 -5 -6 8 25 19 12 33 -14 17 -11 -7 -20 -9 -20 -4
0 12 102 61 130 61 14 1 39 -8 56 -18z m-56 -206 c6 -8 20 -37 30 -66 17 -47
18 -56 6 -75 -23 -33 -152 -48 -176 -19 -17 20 -4 125 15 125 8 0 11 7 8 19
-4 15 5 25 38 41 29 15 38 24 29 30 -7 4 -10 12 -6 18 3 6 1 14 -5 18 -8 4 -7
9 2 15 11 6 18 -5 31 -43 10 -28 22 -56 28 -63z m345 23 c0 -29 -3 -55 -7 -58
-11 -9 -22 -456 -12 -463 6 -3 9 33 9 91 -1 53 2 124 5 157 l7 60 2 -80 c2
-66 3 -209 1 -237 0 -5 -24 -8 -54 -8 l-54 0 -8 53 c-18 128 5 395 40 462 21
40 20 45 -6 45 -28 0 -12 17 22 23 55 10 55 10 55 -45z m-105 -695 c1 -16 10
-44 20 -63 11 -19 26 -48 34 -65 l14 -30 -126 -8 c-71 -4 -144 -14 -165 -22
-51 -21 -64 -19 -83 10 -21 32 -9 47 12 17 8 -12 22 -22 31 -22 12 0 13 3 4
14 -10 12 -6 15 21 21 53 10 192 56 206 67 6 6 12 32 12 59 0 50 20 71 20 22z"/>
<path d="M756 2296 c5 -23 3 -25 -38 -28 -38 -3 -43 -6 -41 -25 3 -29 -4 -29
-33 -2 -24 23 -54 20 -54 -5 0 -8 11 -16 27 -18 35 -4 43 -28 9 -28 -31 0 -34
-16 -5 -25 15 -5 30 1 53 23 17 16 37 27 44 25 6 -3 12 2 12 11 0 19 49 45 70
38 19 -7 81 -53 97 -72 18 -23 15 -58 -8 -91 l-20 -29 24 -50 c26 -55 26 -56
-4 -37 -17 10 -22 9 -32 -3 -7 -8 -21 -20 -32 -26 -22 -12 -33 -54 -15 -54 6
0 20 5 32 11 16 9 24 7 41 -9 12 -11 41 -28 65 -37 53 -22 119 -84 100 -96
-19 -12 -56 -11 -81 2 -16 9 -22 9 -25 0 -6 -18 -40 -13 -94 14 -102 51 -152
19 -182 -117 -5 -21 -3 -28 9 -28 10 0 15 10 15 33 0 43 51 117 81 117 11 0
34 -7 51 -16 45 -23 157 -51 198 -49 38 2 80 14 80 23 0 3 -17 28 -39 57 -28
37 -50 55 -79 64 -43 15 -112 65 -112 83 0 10 17 8 53 -7 24 -10 23 20 -3 70
-24 47 -25 68 -5 85 21 18 19 82 -4 112 -11 13 -42 35 -69 48 -28 14 -53 33
-55 43 -3 9 -12 17 -21 17 -12 0 -15 -6 -10 -24z"/>
<path d="M574 2008 c2 -18 7 -54 11 -79 6 -44 5 -49 -24 -77 -17 -16 -31 -38
-31 -48 0 -16 -2 -17 -10 -4 -7 11 -14 12 -27 4 -25 -16 -27 -31 -4 -39 22 -7
28 -39 12 -64 -11 -17 -53 -8 -78 17 -14 14 -33 18 -83 17 l-65 0 -3 -35 c-2
-21 -12 -42 -25 -53 -19 -15 -20 -19 -7 -28 13 -9 14 -29 5 -148 -5 -75 -7
-190 -4 -256 8 -155 1 -449 -12 -499 -9 -34 -8 -42 7 -53 10 -7 29 -13 43 -13
14 0 31 -4 37 -8 21 -13 36 -94 39 -202 1 -58 6 -140 10 -183 l8 -78 46 7 c25
4 47 8 49 9 2 2 6 46 9 99 l6 95 31 10 c17 5 75 11 129 13 l97 3 5 -104 c3
-58 7 -107 10 -109 3 -3 44 -7 92 -9 49 -2 120 -9 158 -14 120 -18 225 -22
241 -9 20 17 18 30 -5 30 -11 0 -23 4 -26 10 -3 5 0 8 7 5 26 -9 228 -13 228
-4 0 12 -44 33 -114 55 -34 11 -74 32 -93 50 -30 29 -33 36 -33 91 0 42 -5 64
-15 73 -8 7 -15 17 -15 22 0 12 -26 38 -37 38 -4 0 -8 48 -8 106 0 99 -2 107
-24 125 -16 13 -39 19 -77 19 -41 0 -59 5 -74 20 -11 11 -27 20 -36 20 -12 0
-14 7 -9 33 4 17 9 35 12 40 7 12 67 8 117 -9 33 -11 65 -15 102 -11 40 4 58
2 69 -9 23 -23 28 -79 16 -157 -18 -118 -25 -244 -13 -232 10 9 22 94 39 276
10 113 -25 157 -114 143 -22 -3 -63 1 -98 10 -32 9 -74 16 -92 16 -30 0 -33 3
-33 29 0 17 5 33 10 36 8 5 8 11 0 19 -5 7 -7 26 -4 42 3 16 1 48 -4 72 -6 27
-6 44 0 48 5 4 4 13 -4 22 -8 10 -30 43 -48 75 -21 35 -41 57 -52 57 -22 0
-23 9 -2 25 15 11 15 21 -2 128 -11 64 -22 117 -26 117 -11 0 -10 -53 2 -125
7 -45 7 -61 -3 -67 -8 -5 -7 -8 6 -8 9 0 17 -5 17 -10 0 -6 -11 -8 -26 -4 -26
7 -26 6 -10 -18 9 -14 14 -33 10 -42 -4 -10 -1 -16 9 -16 26 0 76 -68 92 -124
9 -30 15 -79 13 -108 l-3 -53 -110 -12 c-60 -6 -132 -16 -160 -23 -27 -6 -83
-14 -122 -17 l-73 -5 0 39 c0 22 -7 86 -16 144 -10 65 -14 150 -12 227 3 108
1 125 -14 136 -10 7 -18 21 -18 30 0 9 -6 16 -13 16 -10 0 -13 -13 -10 -52 3
-29 0 -96 -7 -148 -6 -52 -15 -169 -20 -260 -5 -91 -12 -194 -15 -229 -3 -35
-3 -88 1 -118 6 -50 9 -55 45 -74 65 -33 50 -34 -59 -7 -42 11 -42 11 -35 47
5 20 8 125 8 234 0 140 3 197 11 197 13 0 25 35 16 44 -3 3 -11 1 -19 -5 -10
-9 -13 -6 -13 15 0 18 5 26 18 26 15 1 15 2 -2 15 -18 14 -19 24 -13 160 4 80
10 151 14 158 5 7 8 21 9 32 0 11 1 44 2 74 l2 53 45 -7 c25 -3 74 -20 110
-36 36 -17 74 -29 87 -26 l23 4 -22 8 c-27 9 -27 6 -8 41 8 16 15 37 15 47 0
20 26 66 48 84 14 11 24 48 23 83 -1 40 -9 99 -15 109 -14 22 -26 10 -22 -21z
m-179 -930 c7 -85 6 -98 -7 -98 -9 0 -21 -7 -28 -15 -7 -8 -15 -15 -19 -15
-11 0 -2 200 16 355 l18 150 6 -140 c3 -77 10 -184 14 -237z m463 -84 c27 -6
31 -11 37 -53 3 -25 2 -58 -4 -73 l-10 -26 -63 14 c-105 25 -170 36 -176 29
-10 -9 20 -25 48 -25 39 0 234 -51 248 -65 25 -23 44 -356 22 -370 -5 -3 -10
-37 -10 -74 0 -60 2 -69 23 -79 53 -26 117 -50 165 -63 83 -21 38 -30 -69 -14
-52 8 -122 15 -156 15 -36 0 -63 4 -63 10 0 6 -15 8 -39 4 l-39 -6 -4 68 c-2
38 0 85 4 104 4 23 3 37 -5 43 -15 9 -230 1 -272 -11 -30 -8 -30 -9 -36 -99
-4 -51 -10 -96 -14 -102 -8 -13 -42 -14 -49 -2 -4 5 -11 87 -16 183 -5 95 -13
186 -16 202 -6 25 -4 28 10 23 10 -4 33 -7 51 -7 31 0 34 -2 33 -32 -1 -18 0
-56 2 -85 l3 -52 136 5 c75 3 142 8 150 10 10 3 12 15 7 45 -9 57 2 110 25
116 11 3 19 9 19 14 0 8 -38 7 -248 -6 -63 -4 -75 -2 -93 16 -26 26 -16 39 11
14 17 -16 21 -16 35 -2 8 9 15 20 15 26 0 16 98 23 215 14 l110 -8 -1 -105
c-1 -58 -3 -152 -5 -210 -3 -89 -1 -109 14 -130 l18 -25 19 23 c10 12 26 23
37 23 16 1 16 2 1 6 -21 5 -23 14 -6 31 9 9 9 12 0 12 -13 0 -7 47 8 63 15 17
-3 56 -32 68 l-29 12 2 119 c2 89 0 121 -10 127 -15 10 -235 20 -343 17 l-76
-3 -6 31 c-4 17 -4 69 0 115 l7 83 91 -4 c109 -6 195 5 239 32 35 22 41 23 85
14z m-462 -50 c-3 -8 -2 -12 4 -9 12 8 13 -144 1 -163 -5 -8 0 -29 12 -53 11
-22 17 -42 14 -46 -3 -3 -26 5 -51 17 -47 22 -62 55 -31 66 8 4 15 10 15 15 0
5 -7 9 -15 9 -14 0 -22 47 -16 104 2 29 8 31 35 12 33 -21 48 0 17 23 -17 13
-19 19 -9 29 17 17 31 15 24 -4z m698 -187 c17 -12 19 -29 18 -156 0 -114 2
-143 14 -148 9 -3 14 -21 14 -56 0 -43 -5 -56 -36 -93 -19 -24 -38 -44 -42
-44 -4 0 -7 55 -7 122 -1 68 -3 166 -5 220 -4 85 -3 99 14 117 15 16 17 24 8
33 -9 9 -15 7 -26 -7 -20 -27 -25 -96 -17 -210 4 -55 6 -116 5 -135 -1 -19 -3
-56 -3 -83 l-1 -48 -30 16 c-30 16 -31 17 -24 73 3 31 10 62 16 69 5 6 7 38 4
70 -10 106 -15 260 -9 267 12 11 89 6 107 -7z m-362 -203 c-2 -38 -9 -67 -15
-69 -7 -2 -61 -6 -122 -8 l-110 -5 -3 57 c-4 83 5 88 158 90 l95 1 -3 -66z
m458 -158 c0 -62 1 -65 40 -100 23 -21 59 -40 85 -47 43 -11 75 -31 38 -24
-54 11 -173 14 -168 5 8 -12 -34 -4 -80 16 -18 7 -23 13 -13 13 10 1 24 14 32
29 8 16 22 34 31 42 11 9 14 22 10 42 -8 33 2 88 16 88 5 0 9 -29 9 -64z"/>
<path d="M800 1718 c-14 -6 -40 -18 -57 -26 -18 -8 -33 -20 -33 -28 0 -10 13
-7 48 11 64 32 98 40 108 24 4 -7 11 -52 15 -99 15 -187 42 -370 54 -370 7 0
38 11 69 25 31 14 65 25 76 25 11 0 20 4 20 8 0 5 28 17 63 27 35 11 79 33
101 52 22 18 49 33 60 33 16 -1 13 -4 -11 -15 -47 -20 -41 -35 15 -35 26 0 54
-5 62 -11 11 -8 7 -9 -17 -4 -50 10 -46 -10 7 -35 27 -13 47 -27 44 -31 -3 -5
-27 2 -54 16 -51 26 -70 31 -70 17 0 -4 23 -15 51 -25 74 -27 52 -33 -25 -7
-82 27 -116 22 -222 -31 -43 -21 -85 -39 -91 -39 -7 0 -13 -4 -13 -10 0 -5 -8
-10 -18 -10 -10 0 -27 -7 -38 -16 -41 -33 53 -4 148 45 124 65 153 69 257 36
47 -15 86 -23 90 -18 3 5 14 12 24 16 33 12 18 35 -35 54 l-53 18 64 5 c66 5
91 23 48 34 -13 3 -56 6 -95 7 -77 2 -91 19 -16 19 65 0 52 23 -19 34 -56 8
-58 7 -100 -26 -23 -19 -62 -40 -87 -47 -25 -7 -57 -20 -73 -28 -24 -13 -28
-12 -33 1 -9 24 -48 21 -41 -3 3 -14 -6 -23 -38 -39 l-43 -21 -11 87 c-6 48
-15 117 -21 155 -5 37 -10 93 -10 125 0 96 -34 130 -100 100z"/>
<path d="M2765 1338 c-11 -6 -32 -21 -47 -34 -15 -12 -33 -24 -40 -26 -9 -3
-6 -13 10 -33 12 -15 22 -38 22 -51 0 -23 27 -174 36 -203 2 -8 6 -12 9 -10 2
3 -2 34 -10 70 -12 59 -19 119 -16 143 1 12 34 -33 49 -68 l13 -29 24 23 c14
13 25 30 25 38 0 8 -27 41 -61 74 -34 33 -59 61 -57 63 1 2 23 15 48 29 25 14
38 26 30 26 -8 -1 -24 -6 -35 -12z"/>
</g>
</svg>
