<?xml version="1.0" standalone="no"?>
<!DOCTYPE svg PUBLIC "-//W3C//DTD SVG 20010904//EN"
 "http://www.w3.org/TR/2001/REC-SVG-20010904/DTD/svg10.dtd">
<svg version="1.0" xmlns="http://www.w3.org/2000/svg"
 width="71.000000pt" height="71.000000pt" viewBox="0 0 71.000000 71.000000"
 preserveAspectRatio="xMidYMid meet">
<metadata>
Created by potrace 1.16, written by Peter Selinger 2001-2019
</metadata>
<g transform="translate(0.000000,71.000000) scale(0.100000,-0.100000)"
fill="#000000" stroke="none">
<path d="M125 616 c-8 -19 -20 -38 -26 -41 -11 -7 -7 -59 13 -168 8 -43 17
-63 34 -74 28 -18 31 -33 6 -33 -22 0 -102 -73 -102 -94 0 -9 5 -16 10 -16 6
0 23 -11 38 -25 32 -30 70 -32 105 -5 28 22 52 26 44 8 -33 -89 -33 -89 -12
-104 23 -17 39 -13 44 11 2 13 -1 16 -13 12 -9 -4 -16 -2 -16 3 0 6 4 10 9 10
5 0 21 21 36 46 29 49 45 53 26 6 -15 -35 -1 -77 27 -84 34 -9 45 5 34 45 -16
56 -6 74 50 93 27 9 65 30 84 47 55 47 68 81 67 170 l-1 79 -48 50 c-41 41
-54 49 -78 45 -20 -3 -35 3 -52 20 -31 31 -64 31 -64 -2 0 -13 8 -29 18 -35
15 -10 15 -11 -3 -4 -51 18 -65 17 -65 -4 0 -12 13 -28 34 -40 20 -12 36 -30
38 -43 2 -15 12 -25 28 -29 31 -7 38 -40 12 -63 -30 -27 -79 -12 -96 28 -8 18
-30 45 -50 61 -19 16 -41 42 -47 59 -43 116 -60 130 -84 71z m49 -54 c11 -33
33 -64 66 -96 52 -50 61 -66 35 -66 -33 0 -12 -20 38 -35 65 -21 102 -10 121
36 18 42 9 69 -25 81 -32 11 -37 29 -15 48 16 13 12 34 -13 65 -12 15 -9 14
11 -3 20 -19 33 -22 56 -17 24 5 33 2 46 -17 9 -12 16 -30 16 -40 0 -11 7 -18
20 -18 16 0 21 -9 27 -42 3 -24 6 -45 6 -48 -1 -3 -4 -22 -7 -43 -11 -69 -115
-157 -150 -128 -11 10 -16 9 -23 -3 -5 -10 -31 -16 -78 -19 -53 -3 -80 -10
-110 -29 -41 -26 -68 -27 -58 -2 3 8 0 14 -6 14 -6 0 -8 7 -4 17 5 13 2 15
-16 10 l-23 -6 23 25 c12 13 40 29 61 34 48 14 53 46 9 63 -21 7 -32 21 -40
47 -15 52 -14 71 4 64 22 -9 19 20 -5 41 -11 10 -20 28 -19 39 0 12 3 15 6 9
5 -15 33 -18 33 -4 0 6 -4 13 -10 16 -13 8 -13 55 -1 55 5 0 17 -22 25 -48z"/>
</g>
</svg>
