<?xml version="1.0" standalone="no"?>
<!DOCTYPE svg PUBLIC "-//W3C//DTD SVG 20010904//EN"
 "http://www.w3.org/TR/2001/REC-SVG-20010904/DTD/svg10.dtd">
<svg version="1.0" xmlns="http://www.w3.org/2000/svg"
 width="74.000000pt" height="71.000000pt" viewBox="0 0 74.000000 71.000000"
 preserveAspectRatio="xMidYMid meet">
<metadata>
Created by potrace 1.16, written by Peter Selinger 2001-2019
</metadata>
<g transform="translate(0.000000,71.000000) scale(0.100000,-0.100000)"
fill="#000000" stroke="none">
<path d="M389 611 c-21 -17 -24 -17 -51 -2 -27 15 -30 15 -75 -11 -57 -32 -80
-71 -95 -162 -10 -63 -10 -68 18 -123 19 -39 42 -66 67 -82 34 -22 38 -29 35
-60 -3 -31 -7 -36 -28 -37 -43 -2 -48 -4 -54 -19 -11 -30 5 -47 38 -42 60 10
86 25 86 50 0 38 21 87 36 87 18 0 46 -63 38 -83 -2 -7 -21 -21 -40 -31 -41
-19 -40 -40 2 -44 22 -2 37 5 59 28 27 28 30 37 28 90 -1 33 1 61 6 64 4 3 27
-11 50 -30 l41 -36 26 21 c15 12 35 21 46 21 10 0 21 7 24 15 12 31 -7 61 -61
97 -52 34 -54 38 -36 48 28 14 53 65 50 98 -2 15 -1 32 2 37 11 21 4 110 -9
107 -33 -7 -91 -55 -127 -106 -44 -61 -117 -108 -137 -88 -8 8 1 23 33 52 24
22 47 40 50 40 3 0 19 11 35 25 23 20 26 27 15 34 -7 5 -22 6 -32 4 -23 -6
-25 10 -4 27 14 12 12 30 -4 30 -5 0 -19 -8 -32 -19z m-54 -31 c3 -5 14 -10
23 -10 12 0 18 -9 19 -29 2 -22 -5 -34 -25 -47 -50 -33 -68 -78 -39 -102 19
-16 137 26 137 49 0 13 78 110 102 127 29 21 33 7 9 -33 -26 -45 -27 -65 -1
-65 27 0 27 -37 -1 -45 -11 -4 -18 -12 -16 -19 3 -8 -9 -18 -29 -25 -41 -15
-43 -27 -6 -43 60 -27 100 -59 95 -78 -6 -22 -42 -33 -60 -19 -6 6 -16 8 -22
5 -5 -4 -21 -1 -35 5 -36 17 -56 -2 -56 -55 l-1 -41 -21 43 c-22 45 -28 48
-61 31 -16 -9 -22 -9 -25 0 -2 6 -10 11 -19 11 -31 0 -74 36 -95 78 -37 79
-11 217 49 254 32 19 69 23 78 8z"/>
</g>
</svg>
